<svg width="1240" height="1240" viewBox="0 0 1240 1240" fill="none" xmlns="http://www.w3.org/2000/svg">
<rect width="1239.13" height="1238.56" transform="translate(0.500427 0.550049)" fill="white"/>
<path d="M332.788 303.595L137.093 502.849M625.325 250.61L185.344 698.593M872.209 236.591L256.83 863.162M933.01 419.426L363.972 998.815M959.257 637.445L578.238 1025.39M1032.32 807.794L835.125 1008.58" stroke="#E7E7E7" stroke-width="172" stroke-linecap="round"/>
<path d="M724 883V878H719L676.866 878L627 878L577.134 878L535 878H530V883C530 936.293 573.158 984 627 984C680.842 984 724 936.293 724 883Z" stroke="#C0BEBE" stroke-width="10"/>
<path d="M302 934H330.5" stroke="black" stroke-width="10" stroke-linecap="round" stroke-linejoin="round"/>
<path d="M350.5 934H890.5" stroke="black" stroke-width="10" stroke-linecap="round" stroke-linejoin="round"/>
<path d="M910.5 934H939" stroke="black" stroke-width="10" stroke-linecap="round" stroke-linejoin="round"/>
<path d="M383 906H411.5" stroke="black" stroke-width="10" stroke-linecap="round" stroke-linejoin="round"/>
<path d="M431.5 906H460" stroke="black" stroke-width="10" stroke-linecap="round" stroke-linejoin="round"/>
<path d="M780 906H808.5" stroke="black" stroke-width="10" stroke-linecap="round" stroke-linejoin="round"/>
<path d="M828.5 906H857" stroke="black" stroke-width="10" stroke-linecap="round" stroke-linejoin="round"/>
<path d="M543 368.5V377.27L550.547 372.803C570.074 361.243 628.408 344.135 700.126 373.135L707 375.915V368.5C707 346.376 697.382 324.582 682.514 308.341C667.646 292.1 647.134 281 625 281C602.866 281 582.354 292.1 567.486 308.341C552.618 324.582 543 346.376 543 368.5Z" fill="#615F5F" fill-opacity="0.5" stroke="#C0BEBE" stroke-width="10"/>
<path d="M895.5 810.5V859L624.75 858.75L354 858.5V810C385.5 817.5 433.5 782 426 545C424.703 504 457.75 361.25 624.75 354.25C791.75 361.25 824.797 504.5 823.5 545.5C816 782.5 864 818 895.5 810.5Z" fill="white" stroke="#C0BEBE" stroke-width="10" stroke-linecap="round"/>
<path fill-rule="evenodd" clip-rule="evenodd" d="M546.298 355.176C547.905 338.009 555.913 321.146 567.862 308.093C581.277 293.439 599.265 284 618 284C636.735 284 654.723 293.439 668.138 308.093C680.137 321.201 688.162 338.15 689.722 355.391C668.989 348.105 645.2 343.396 617.959 342.254L617.75 342.246L617.541 342.254C590.527 343.387 566.909 348.014 546.298 355.176ZM536.039 359.045C536.719 337.77 546.169 316.98 560.486 301.341C575.354 285.1 595.866 274 618 274C640.134 274 660.646 285.1 675.514 301.341C689.888 317.043 699.356 337.935 699.968 359.299C738.547 375.206 765.681 400.341 784.346 427.277C813.965 470.019 822.178 517.147 821.497 538.658C817.753 656.997 827.915 724.265 842.518 760.833C849.803 779.075 858.016 789.228 865.713 794.448C873.266 799.57 880.712 800.215 887.342 798.636L893.5 797.17V803.5V852V857.005L888.495 857L617.745 856.75L346.995 856.5L342 856.495V851.5V803V796.67L348.158 798.136C354.788 799.715 362.234 799.07 369.787 793.948C377.484 788.728 385.697 778.575 392.982 760.333C407.585 723.765 417.747 656.497 414.003 538.158C413.322 516.645 421.536 469.639 451.158 427.021C469.906 400.047 497.195 374.892 536.039 359.045ZM423.997 537.842C423.381 518.355 431.041 473.486 459.369 432.729C487.477 392.288 536.024 355.739 617.75 352.254C699.469 355.739 748.015 392.406 776.127 432.973C804.458 473.856 812.119 518.853 811.503 538.342C807.747 657.003 817.835 725.985 833.232 764.542C840.947 783.863 850.172 795.991 860.1 802.724C867.965 808.058 876.01 809.825 883.5 809.309V846.995L617.755 846.75L352 846.505V808.809C359.49 809.325 367.535 807.558 375.4 802.224C385.328 795.491 394.553 783.363 402.268 764.042C417.665 725.485 427.753 656.503 423.997 537.842Z" fill="black"/>
<path d="M717 876V871H712L669.866 871L620 871L570.134 871L528 871H523V876C523 929.293 566.158 977 620 977C673.842 977 717 929.293 717 876Z" fill="#F26053" stroke="black" stroke-width="10"/>
<path d="M304.5 1044.5L325 1065M304.5 1065L325 1044.5" stroke="#E33324" stroke-width="10" stroke-linecap="round" stroke-linejoin="round"/>
<path d="M1085 795L1105.5 815.5M1085 815.5L1105.5 795" stroke="#E33324" stroke-width="10" stroke-linecap="round" stroke-linejoin="round"/>
<path d="M152 513L172.5 533.5M152 533.5L172.5 513" stroke="#E33324" stroke-width="10" stroke-linecap="round" stroke-linejoin="round"/>
<path d="M874 204L894.5 224.5M874 224.5L894.5 204" stroke="#E33324" stroke-width="10" stroke-linecap="round" stroke-linejoin="round"/>
<circle cx="362" cy="240" r="11" stroke="#E33324" stroke-width="10"/>
<circle cx="146" cy="789" r="11" stroke="#E33324" stroke-width="10"/>
<circle cx="1095" cy="523" r="11" stroke="#E33324" stroke-width="10"/>
<circle cx="766" cy="1081" r="11" stroke="#E33324" stroke-width="10"/>
</svg>
